<?xml version="1.0" encoding="UTF-8" standalone="no"?>
<!-- Created with Inkscape (http://www.inkscape.org/) -->

<svg
   width="512"
   height="512"
   viewBox="0 0 512 512"
   version="1.1"
   id="svg1"
   inkscape:export-filename="ciboard-icon2.svg"
   inkscape:export-xdpi="96"
   inkscape:export-ydpi="96"
   xml:space="preserve"
   xmlns:inkscape="http://www.inkscape.org/namespaces/inkscape"
   xmlns:sodipodi="http://sodipodi.sourceforge.net/DTD/sodipodi-0.dtd"
   xmlns="http://www.w3.org/2000/svg"
   xmlns:svg="http://www.w3.org/2000/svg"><sodipodi:namedview
     id="namedview1"
     pagecolor="#ffffff"
     bordercolor="#000000"
     borderopacity="0.25"
     inkscape:showpageshadow="2"
     inkscape:pageopacity="0.0"
     inkscape:pagecheckerboard="0"
     inkscape:deskcolor="#d1d1d1"
     inkscape:document-units="px" /><defs
     id="defs1"><linearGradient
       id="swatch9"
       inkscape:swatch="solid"><stop
         style="stop-color:#000000;stop-opacity:1;"
         offset="0"
         id="stop9" /></linearGradient></defs><rect
     style="display:none;fill:#000000;stroke:#000000;-inkscape-stroke:none"
     id="rect1"
     width="751.00946"
     height="827.16077"
     x="-133.18846"
     y="-208.06258"
     rx="0.22378421" /><g
     style="fill:none;stroke-width:1.54178"
     id="g2"
     transform="matrix(21.574807,0,0,21.665249,1.2456657,-7.6886064)"><path
       d="m 16,4.00195 c 2.175,0.01211 3.352901,0.1085587 4.1213,0.87694 0.216629,0.2166244 0.379852,0.4657984 0.502835,0.7606876 C 21,6.5408293 21,7.8690889 21,10.0002 v 6 c 0,2.8284 0,4.2427 -0.8787,5.1213 C 19.2426,22.0002 17.8284,22.0002 15,22.0002 H 9 c -2.82843,0 -4.24264,0 -5.12132,-0.8787 C 3,20.2429 3,18.8286 3,16.0002 v -6 C 3,7.17179 3,5.75757 3.87868,4.87889 4.64706,4.11051 5.82497,4.01406 8,4.00195"
       stroke="#1c274c"
       stroke-width="2.31268"
       id="path1"
       sodipodi:nodetypes="csssscsscsssc"
       style="opacity:1;fill:#ffffff;fill-opacity:0.00608778;stroke:#f8f9fd;stroke-width:1.38761;stroke-dasharray:none;stroke-opacity:1" /><path
       d="M 10.5,14 H 17"
       stroke="#1c274c"
       stroke-width="2.31268"
       stroke-linecap="round"
       id="path2"
       style="opacity:1;fill:#ffffff;fill-opacity:0.00608778;stroke:#f8f9fd;stroke-width:1.38761;stroke-dasharray:none;stroke-opacity:1" /><path
       d="M 7,14 H 7.5"
       stroke="#1c274c"
       stroke-width="2.31268"
       stroke-linecap="round"
       id="path3"
       style="opacity:1;fill:#ffffff;fill-opacity:0.00608778;stroke:#f8f9fd;stroke-width:1.38761;stroke-dasharray:none;stroke-opacity:1" /><path
       d="M 7,10.5 H 7.5"
       stroke="#1c274c"
       stroke-width="2.31268"
       stroke-linecap="round"
       id="path4"
       style="opacity:1;fill:#ffffff;fill-opacity:0.00608778;stroke:#f8f9fd;stroke-width:1.38761;stroke-dasharray:none;stroke-opacity:1" /><path
       d="M 7,17.5 H 7.5"
       stroke="#1c274c"
       stroke-width="2.31268"
       stroke-linecap="round"
       id="path5"
       style="opacity:1;fill:#ffffff;fill-opacity:0.00608778;stroke:#f8f9fd;stroke-width:1.38761;stroke-dasharray:none;stroke-opacity:1" /><path
       d="M 10.5,10.5 H 17"
       stroke="#1c274c"
       stroke-width="2.31268"
       stroke-linecap="round"
       id="path6"
       style="opacity:1;fill:#ffffff;fill-opacity:0.00608778;stroke:#f8f9fd;stroke-width:1.38761;stroke-dasharray:none;stroke-opacity:1" /><path
       d="M 10.5,17.5 H 17"
       stroke="#1c274c"
       stroke-width="2.31268"
       stroke-linecap="round"
       id="path7"
       style="opacity:1;fill:#ffffff;fill-opacity:0.00608778;stroke:#f8f9fd;stroke-width:1.38761;stroke-dasharray:none;stroke-opacity:1" /><path
       d="M 8,3.5 C 8,2.67157 8.67157,2 9.5,2 h 5 C 15.3284,2 16,2.67157 16,3.5 v 1 C 16,5.32843 15.3284,6 14.5,6 h -5 C 8.67157,6 8,5.32843 8,4.5 Z"
       stroke="#1c274c"
       stroke-width="2.31268"
       id="path8"
       style="opacity:1;fill:#ffffff;fill-opacity:0.00608778;stroke:#f8f9fd;stroke-width:1.38761;stroke-dasharray:none;stroke-opacity:1" /></g></svg>
