<?xml version="1.0" encoding="UTF-8" standalone="no"?>
<!-- Created with Inkscape (http://www.inkscape.org/) -->

<svg
   width="512"
   height="512"
   viewBox="0 0 512 512"
   version="1.1"
   id="svg1"
   xmlns:inkscape="http://www.inkscape.org/namespaces/inkscape"
   xmlns:sodipodi="http://sodipodi.sourceforge.net/DTD/sodipodi-0.dtd"
   xmlns="http://www.w3.org/2000/svg"
   xmlns:svg="http://www.w3.org/2000/svg">
  <sodipodi:namedview
     id="namedview1"
     pagecolor="#ffffff"
     bordercolor="#000000"
     borderopacity="0.25"
     inkscape:showpageshadow="2"
     inkscape:pageopacity="0.0"
     inkscape:pagecheckerboard="0"
     inkscape:deskcolor="#d1d1d1"
     inkscape:document-units="px" />
  <defs
     id="defs1" />
  <g
     inkscape:label="Camada 1"
     inkscape:groupmode="layer"
     id="layer1">
    <path
       d="M 256.26017,3.60585 C 31.597684,3.60585 -80.873048,275.21267 77.968021,434.05397 236.80932,592.89527 508.41614,480.42431 508.41614,255.76182 508.25568,116.56806 395.45394,3.7699806 256.26017,3.60585 Z m 0,458.4654 C 72.445347,462.07125 -19.576224,239.84734 110.38473,109.88638 129.56395,90.707399 150.75238,76.362704 172.93936,66.434178 301.0958,9.0847408 462.5696,99.073476 462.5696,255.76182 462.43206,369.64577 370.14412,461.93233 256.26017,462.07125 Z m 22.92327,-103.15472 v 45.84654 H 233.3369 v -45.84654 z m 68.76981,-160.46289 c 0.0458,27.8504 -12.61055,54.20185 -34.3849,71.56645 -17.36255,13.45482 -29.10339,32.88366 -32.94074,54.51154 h -46.58009 c 4.09479,-35.70414 22.43799,-68.24051 50.86674,-90.22599 24.3099,-19.45613 22.56888,-56.96708 -3.43849,-74.08801 -13.69115,-8.94901 -31.04201,-10.16349 -45.84654,-3.20926 -15.86818,7.60571 -25.75544,23.85671 -25.2156,41.44527 0,30.56429 -45.84654,30.56429 -45.84654,0 v 0 c -0.69687,-36.01956 20.24469,-68.95411 53.15907,-83.60116 29.00183,-12.96105 62.61078,-10.23891 89.14859,7.22083 25.62891,16.9662 41.0526,45.64459 41.0785,76.38033 z"
       id="path1"
       sodipodi:nodetypes="cscccsscccccccccccccccssccc"
       style="display:inline;fill:#ffffff;stroke-width:1" />
  </g>
</svg>
