<?xml version="1.0" encoding="UTF-8" standalone="no"?>
<!-- Created with Inkscape (http://www.inkscape.org/) -->

<svg
   width="334.202"
   height="328.73001"
   viewBox="0 0 334.202 328.73001"
   version="1.1"
   id="svg1"
   xml:space="preserve"
   xmlns="http://www.w3.org/2000/svg"
   xmlns:svg="http://www.w3.org/2000/svg"><defs
     id="defs1" /><rect
     style="display:none;fill:#2c2c2c;fill-opacity:1;stroke:none;stroke-width:30"
     id="rect5"
     width="574.53961"
     height="608.64471"
     x="-155.62756"
     y="-131.07986"
     rx="0.22378421" /><g
     id="g17"
     transform="translate(-1.6601202e-6,-2.7360047)"><g
       id="g1"
       style="fill:#ffffff">
	<path
   d="m 334.202,138.526 c 0,-16.536 -13.458,-29.988 -29.988,-29.988 H 256.617 L 207.066,14.552 C 201.629,4.237 189.681,-0.159 180.395,4.738 171.109,9.635 167.991,21.975 173.428,32.29 l 40.193,76.248 H 120.567 L 160.76,32.29 c 5.444,-10.315 2.32,-22.655 -6.967,-27.552 -9.287,-4.897 -21.234,-0.501 -26.671,9.814 L 77.578,108.538 H 29.994 C 13.458,108.538 0,121.989 0,138.526 c 0,11.96 7.095,22.23 17.25,27.038 l 18.638,147.065 c 0.238,10.424 8.792,18.837 19.274,18.837 h 223.866 c 10.482,0 19.043,-8.413 19.281,-18.837 L 316.947,165.57 c 10.16,-4.814 17.255,-15.078 17.255,-27.044 z m -48.69,172.849 -0.051,0.81 c 0,3.548 -2.873,6.427 -6.427,6.427 H 55.162 c -3.548,0 -6.427,-2.879 -6.427,-6.427 L 30.579,168.513 h 273.044 z m 25.431,-157.097 -1.755,0.533 c -0.88,0.264 -1.671,0.45 -2.436,0.591 -0.829,0.129 -1.671,0.257 -2.539,0.257 H 29.994 c -0.874,0 -1.71,-0.135 -2.545,-0.257 -0.758,-0.135 -1.555,-0.328 -2.429,-0.591 l -1.755,-0.533 c -6.112,-2.622 -10.411,-8.689 -10.411,-15.752 0,-9.447 7.686,-17.134 17.14,-17.134 h 41.209 c -3.078,9.415 0.296,19.55 8.496,23.876 9.287,4.897 21.234,0.501 26.671,-9.814 l 7.41,-14.062 h 106.608 l 7.417,14.062 c 5.437,10.315 17.385,14.711 26.671,9.814 8.194,-4.325 11.575,-14.46 8.496,-23.876 h 41.222 c 9.441,0 17.134,7.686 17.134,17.134 0.02,7.063 -4.273,13.123 -10.385,15.752 z M 74.313,292.236 V 192.62 c 0,-3.554 2.873,-6.427 6.427,-6.427 3.554,0 6.427,2.873 6.427,6.427 v 99.616 c 0,3.554 -2.873,6.427 -6.427,6.427 -3.554,0 -6.427,-2.873 -6.427,-6.427 z m 172.722,0 V 192.62 c 0,-3.554 2.873,-6.427 6.427,-6.427 3.554,0 6.427,2.873 6.427,6.427 v 99.616 c 0,3.554 -2.873,6.427 -6.427,6.427 -3.554,0 -6.427,-2.873 -6.427,-6.427 z m -57.578,0 V 192.62 c 0,-3.554 2.873,-6.427 6.427,-6.427 3.554,0 6.427,2.873 6.427,6.427 v 99.616 c 0,3.554 -2.873,6.427 -6.427,6.427 -3.555,0 -6.427,-2.873 -6.427,-6.427 z m -57.566,0 V 192.62 c 0,-3.554 2.873,-6.427 6.427,-6.427 3.554,0 6.427,2.873 6.427,6.427 v 99.616 c 0,3.554 -2.873,6.427 -6.427,6.427 -3.554,0 -6.427,-2.873 -6.427,-6.427 z"
   id="path1"
   style="fill:#ffffff" />
</g><g
       id="g2"
       style="fill:#ffffff">
</g><g
       id="g3"
       style="fill:#ffffff">
</g><g
       id="g4"
       style="fill:#ffffff">
</g><g
       id="g5"
       style="fill:#ffffff">
</g><g
       id="g6"
       style="fill:#ffffff">
</g><g
       id="g7"
       style="fill:#ffffff">
</g><g
       id="g8"
       style="fill:#ffffff">
</g><g
       id="g9"
       style="fill:#ffffff">
</g><g
       id="g10"
       style="fill:#ffffff">
</g><g
       id="g11"
       style="fill:#ffffff">
</g><g
       id="g12"
       style="fill:#ffffff">
</g><g
       id="g13"
       style="fill:#ffffff">
</g><g
       id="g14"
       style="fill:#ffffff">
</g><g
       id="g15"
       style="fill:#ffffff">
</g><g
       id="g16"
       style="fill:#ffffff">
</g></g></svg>
