<?xml version="1.0" encoding="UTF-8" standalone="no"?>
<!-- Created with Inkscape (http://www.inkscape.org/) -->

<svg
   width="512"
   height="512"
   viewBox="0 0 512 512"
   version="1.1"
   id="svg1"
   inkscape:export-filename="homeIcon02.svg"
   inkscape:export-xdpi="96"
   inkscape:export-ydpi="96"
   xml:space="preserve"
   xmlns:inkscape="http://www.inkscape.org/namespaces/inkscape"
   xmlns:sodipodi="http://sodipodi.sourceforge.net/DTD/sodipodi-0.dtd"
   xmlns="http://www.w3.org/2000/svg"
   xmlns:svg="http://www.w3.org/2000/svg"><sodipodi:namedview
     id="namedview1"
     pagecolor="#ffffff"
     bordercolor="#000000"
     borderopacity="0.25"
     inkscape:showpageshadow="2"
     inkscape:pageopacity="0.0"
     inkscape:pagecheckerboard="0"
     inkscape:deskcolor="#d1d1d1"
     inkscape:document-units="px" /><defs
     id="defs1" /><rect
     style="display:none;fill:#000000;stroke:#000000;-inkscape-stroke:none"
     id="rect1"
     width="751.00946"
     height="827.16077"
     x="-133.18846"
     y="-208.06258"
     rx="0.22378421" /><g
     style="display:inline;opacity:1;fill:#ffffff;stroke-width:1.73457;stroke-dasharray:none"
     id="g2"
     transform="matrix(20.227134,0,0,18.256967,14.720441,32.910312)"><path
       d="m 22,12.2039 v 1.5211 c 0,3.9008 0,5.8513 -1.1716,7.0631 C 19.6569,22 17.7712,22 14,22 H 10 C 6.22876,22 4.34315,22 3.17157,20.7881 2,19.5763 2,17.6258 2,13.725 V 12.2039 C 2,9.91549 2,8.77128 2.5192,7.82274 3.0384,6.87421 3.98695,6.28551 5.88403,5.10813 l 2,-1.24126 C 9.88939,2.62229 10.8921,2 12,2 c 1.1079,0 2.1106,0.62229 4.116,1.86687 l 2,1.24125 c 1.8971,1.17739 2.8456,1.76609 3.3648,2.71462"
       stroke="#1c274c"
       stroke-width="2.60188"
       stroke-linecap="round"
       id="path1"
       style="display:inline;opacity:1;fill:#ffff00;fill-opacity:0;stroke:#ffffff;stroke-width:1.73457;stroke-dasharray:none;stroke-opacity:1" /><path
       d="M 15,18 H 9"
       stroke="#1c274c"
       stroke-width="2.60188"
       stroke-linecap="round"
       id="path2"
       style="display:inline;fill:#ffff00;stroke:#ffffff;stroke-width:1.73457;stroke-dasharray:none;stroke-opacity:1" /></g></svg>
