<?xml version="1.0" encoding="UTF-8" standalone="no"?>
<!-- Created with Inkscape (http://www.inkscape.org/) -->

<svg
   width="512"
   height="512"
   viewBox="0 0 512 512"
   version="1.1"
   id="svg1"
   xmlns:inkscape="http://www.inkscape.org/namespaces/inkscape"
   xmlns:sodipodi="http://sodipodi.sourceforge.net/DTD/sodipodi-0.dtd"
   xmlns="http://www.w3.org/2000/svg"
   xmlns:svg="http://www.w3.org/2000/svg">
  <sodipodi:namedview
     id="namedview1"
     pagecolor="#ffffff"
     bordercolor="#000000"
     borderopacity="0.25"
     inkscape:showpageshadow="2"
     inkscape:pageopacity="0.0"
     inkscape:pagecheckerboard="0"
     inkscape:deskcolor="#d1d1d1"
     inkscape:document-units="px" />
  <defs
     id="defs1" />
  <g
     inkscape:label="Camada 1"
     inkscape:groupmode="layer"
     id="layer1">
    <path
       d="M 440.2648,50.801176 H 260.92644 L 179.07416,9.8750338 H 71.929512 c -33.845924,0 -61.389217,27.5432932 -61.389217,61.3892062 V 460.06259 H 237.25066 c -7.34624,-12.66664 -12.97358,-26.39736 -16.71832,-40.92613 H 51.466437 V 173.5796 H 460.72786 v 63.00579 c 15.42916,8.94237 29.22126,20.29938 40.92614,33.60037 V 112.19039 c 0,-33.84592 -27.54329,-61.389214 -61.3892,-61.389214 z M 51.466437,132.65345 V 71.26424 c 0,-11.275145 9.167455,-20.463064 20.463075,-20.463064 H 169.41559 L 251.26787,91.72732 H 440.2648 c 11.2956,0 20.46306,9.18792 20.46306,20.46307 v 20.46306 z m 423.585573,166.54894 -28.8734,16.63648 c -12.38015,-13.34192 -28.50505,-23.04142 -46.86042,-27.23635 v -33.17064 h -40.92615 v 33.17064 c -18.3349,4.19493 -34.48027,13.89443 -46.86044,27.23635 l -28.87339,-16.63648 -20.42214,35.44204 28.97571,16.69787 c -2.63974,8.55356 -4.46095,17.455 -4.46095,26.86801 0,9.41301 1.82121,18.31445 4.46095,26.86801 l -28.97571,16.69787 20.42214,35.44204 28.87339,-16.63648 c 12.38017,13.34192 28.50506,23.04142 46.86044,27.23635 v 33.17064 h 40.92615 V 467.8181 c 18.3349,-4.19493 34.48027,-13.89443 46.86042,-27.23635 l 28.8734,16.63648 20.42215,-35.44204 -28.97571,-16.69787 c 2.63974,-8.55356 4.46094,-17.455 4.46094,-26.86801 0,-9.41301 -1.8212,-18.31445 -4.46094,-26.86801 l 28.97571,-16.69787 z m -96.17643,130.16559 c -28.21857,0 -51.15768,-22.9391 -51.15768,-51.15767 0,-28.21857 22.93911,-51.15767 51.15768,-51.15767 28.21858,0 51.15768,22.9391 51.15768,51.15767 0,28.21857 -22.9391,51.15767 -51.15768,51.15767 z"
       id="path1"
       style="fill:#ffffff;stroke-width:1" />
  </g>
</svg>
